inDegrees=yes
name=ik_Shooting_orientations_side
DataType=double
version=3
OpenSimVersion=4.3-2021-08-27-4bc7ad9
endheader
time	pelvis_tilt	pelvis_list	pelvis_rotation	pelvis_tx	pelvis_ty	pelvis_tz	hip_flexion_r	hip_adduction_r	hip_rotation_r	knee_angle_r	knee_angle_r_beta	ankle_angle_r	subtalar_angle_r	mtp_angle_r	hip_flexion_l	hip_adduction_l	hip_rotation_l	knee_angle_l	knee_angle_l_beta	ankle_angle_l	subtalar_angle_l	mtp_angle_l	lumbar_extension	lumbar_bending	lumbar_rotation	arm_flex_r	arm_add_r	arm_rot_r	elbow_flex_r	pro_sup_r	wrist_flex_r	wrist_dev_r	arm_flex_l	arm_add_l	arm_rot_l	elbow_flex_l	pro_sup_l	wrist_flex_l	wrist_dev_l
12.5	-3.559771998880795	0.2365010972317832	145.9316860184407	0	0.9399999999999999	0	43.84952340754548	-10.01989879109837	0	59.7332955727535	1.042542680811501	-5.002064589263641	0	0	43.84952340754548	-10.01989879109837	0	59.7332955727535	1.042542680811501	-5.002064589263641	0	0	-2.630927856662413	-0.5290156896692191	-0.646753611433029	0	-12.14358984465113	0	75.73521903180999	45.01676322540252	0	0	25.86413877268184	4.665164159333647	45.73478250125748	75.73521903180999	45.01676322540252	0	0
12.51	-3.580041814704145	0.276139187504429	145.9379825403855	0	0.9399999999999999	0	43.85372694388873	-10.01965467004925	0	59.73405990316143	1.042556020893692	-5.002032086626461	0	0	43.85372694388873	-10.01965467004925	0	59.73405990316143	1.042556020893692	-5.002032086626461	0	0	-2.653938147409214	-0.5153969527516318	-0.6695353951429005	0	-12.14896827094431	0	75.73253374369419	45.0165986438598	0	0	25.85967104558477	4.647536398603503	45.80718599317014	75.73253374369419	45.0165986438598	0	0
12.52	-3.584350190813682	0.2887296079328868	145.9309962095884	0	0.9399999999999999	0	43.85745648674717	-10.01943607414957	0	59.73473713254891	1.042567840776295	-5.002002889803322	0	0	43.85745648674717	-10.01943607414957	0	59.73473713254891	1.042567840776295	-5.002002889803322	0	0	-2.661616076864912	-0.5023817416872153	-0.6752196531319149	0	-12.15372955521337	0	75.73015125453837	45.01645162566921	0	2.155227684594804e-35	25.88623118064696	4.640173192798874	45.89563424223847	75.73015125453837	45.01645162566921	0	2.155227684594804e-35
12.53	-3.584729044544299	0.3003867978798687	145.9282945662429	0	0.9399999999999999	0	43.86014254037872	-10.01928283367968	0	59.73522585553405	1.042576370601516	-5.001982642676667	0	0	43.86014254037872	-10.01928283367968	0	59.73522585553405	1.042576370601516	-5.001982642676667	0	0	-2.672152022076407	-0.4947413440558569	-0.6777273332185888	0	-12.1571774332595	0	75.72843535424271	45.01634776796237	0	0	25.90811810626363	4.637011544483276	45.98446699578034	75.72843535424271	45.01634776796237	0	0
12.54	-3.584600885512974	0.3177518385702764	145.9249311478503	0	0.9399999999999999	0	43.863273678003	-10.01910429466404	0	59.73579575939971	1.042586317300391	-5.001959057365233	0	0	43.863273678003	-10.01910429466404	0	59.73579575939971	1.042586317300391	-5.001959057365233	0	0	-2.683835047351943	-0.482832235272057	-0.6808388078690975	0	-12.16119739763644	0	75.72643512606933	45.01622674881798	0	0	25.92653207596491	4.633034679233116	46.06917328484899	75.72643512606933	45.01622674881798	0	0
12.55	-3.601497970451898	0.3440709271396342	145.9093530442473	0	0.9399999999999999	0	43.86631422451897	-10.01893346458598	0	59.7363500610891	1.042595991689921	-5.001936619878353	0	0	43.86631422451897	-10.01893346458598	0	59.7363500610891	1.042595991689921	-5.001936619878353	0	0	-2.712738347146555	-0.4662354780544693	-0.6716129835776209	0	-12.16511353107205	0	75.72449276425225	45.01611047668328	0	-1.035559566786002e-35	25.94062234083407	4.623665975795103	46.14814431673624	75.72449276425225	45.01611047668328	0	-1.035559566786002e-35
12.56	-3.629583264089005	0.3609609946694836	145.9006780779616	0	0.9399999999999999	0	43.86879020531733	-10.01879608806846	0	59.736801857783	1.042603877029779	-5.001918667864854	0	0	43.86879020531733	-10.01879608806846	0	59.736801857783	1.042603877029779	-5.001918667864854	0	0	-2.749032016040815	-0.4599831347487385	-0.676177304102858	0	-12.168310543362	0	75.72291105495069	45.01601663795896	0	0	25.96306351922425	4.620548813558266	46.22243240358279	75.72291105495069	45.01601663795896	0	0
12.57	-3.664509543443592	0.3780275426200266	145.8769979277624	0	0.9399999999999999	0	43.87102203154597	-10.01867144746022	0	59.73720886225429	1.042610980597873	-5.001902339505868	0	0	43.87102203154597	-10.01867144746022	0	59.73720886225429	1.042610980597873	-5.001902339505868	0	0	-2.810664730834145	-0.4683337488070581	-0.6623715732201662	0	-12.17118843403067	0	75.72148531840244	45.01593165298985	0	0	25.99001034241361	4.603745823075908	46.30043244493152	75.72148531840244	45.01593165298985	0	0
12.58	-3.663443914180069	0.3904318447582626	145.9057321184015	0	0.9399999999999999	0	43.87413776178853	-10.01849232374597	0	59.73777563817711	1.042620872703847	-5.001878610729833	0	0	43.87413776178853	-10.01849232374597	0	59.73777563817711	1.042620872703847	-5.001878610729833	0	0	-2.816618418833649	-0.4475194310108829	-0.7046429783620507	0	-12.1751813071685	0	75.71949493593748	45.01581049991395	0	0	26.01992574924456	4.599368915777947	46.3767662283565	75.71949493593748	45.01581049991395	0	0
12.59	-3.665467977132033	0.4078594371390288	145.9168354506787	0	0.9399999999999999	0	43.87725185835539	-10.01831433783815	0	59.73834229068899	1.042630762655894	-5.001855092726005	0	0	43.87725185835539	-10.01831433783815	0	59.73834229068899	1.042630762655894	-5.001855092726005	0	0	-2.826012997360774	-0.4254131386014088	-0.715267343407472	0	-12.17917632847308	0	75.71750559521564	45.01568990661552	0	0	26.0416906330208	4.601763893535952	46.4667827415397	75.71750559521564	45.01568990661552	0	0
12.6	-3.682447471522174	0.4293734888463108	145.8971376474407	0	0.9399999999999999	0	43.87949144077142	-10.01819312549616	0	59.73875179619323	1.042637909875248	-5.001839415328427	0	0	43.87949144077142	-10.01819312549616	0	59.73875179619323	1.042637909875248	-5.001839415328427	0	0	-2.852952628237881	-0.4112668574292487	-0.6947634721384414	0	-12.18208243378461	0	75.71607489659004	45.01560651313292	0	0	26.05365359532571	4.597223539627681	46.55031889114499	75.71607489659004	45.01560651313292	0	0
12.61	-3.684849762972904	0.4391158042183261	145.888428415511	0	0.9399999999999999	0	43.88339984367575	-10.01797806619913	0	59.73946571727848	1.042650370148785	-5.001811417730954	0	0	43.88339984367575	-10.01797806619913	0	59.73946571727848	1.042650370148785	-5.001811417730954	0	0	-2.854466319017424	-0.3979860435259375	-0.7063898926269785	0	-12.18713698944504	0	75.71357812286783	45.0154592434481	0	0	26.07135489146905	4.592492507367077	46.6343929786128	75.71357812286783	45.0154592434481	0	0
12.62	-3.689916790164323	0.4494161965792945	145.8646991390909	0	0.9399999999999999	0	43.88574402725318	-10.01785244283907	0	59.73989475321162	1.042657858238428	-5.001795235586993	0	0	43.88574402725318	-10.01785244283907	0	59.73989475321162	1.042657858238428	-5.001795235586993	0	0	-2.862282628689435	-0.3877903093498355	-0.6846934250430867	0	-12.19018494068528	0	75.7120806002504	45.01537256957804	0	0	26.08694875988656	4.586071176569711	46.71815372374449	75.7120806002504	45.01537256957804	0	0
12.63	-3.690682757191255	0.4586639530341791	145.8645756793446	0	0.9399999999999999	0	43.88936123980946	-10.01765309188468	0	59.7405552115741	1.042669385411426	-5.00176927612722	0	0	43.88936123980946	-10.01765309188468	0	59.7405552115741	1.042669385411426	-5.00176927612722	0	0	-2.857343242077639	-0.3726658035957007	-0.6950947316651942	0	-12.19486039290646	0	75.70976984617465	45.01523609883	0	-5.38806921148701e-36	26.10203884317662	4.586225850022668	46.81993739610003	75.70976984617465	45.01523609883	0	-5.38806921148701e-36
12.64	-3.684937095225237	0.4688223178840737	145.851182130448	0	0.9399999999999999	0	43.89145750405229	-10.01754161485592	0	59.74093908101912	1.042676085197139	-5.001754964554817	0	0	43.89145750405229	-10.01754161485592	0	59.74093908101912	1.042676085197139	-5.001754964554817	0	0	-2.858307389457305	-0.359541015535233	-0.6826764100610841	0	-12.19758991899516	0	75.70843069906824	45.01515900903367	0	0	26.11082256670548	4.572650567187879	46.91104399315196	75.70843069906824	45.01515900903367	0	0
12.65	-3.69445046072053	0.4776121013713505	145.8405886171513	0	0.9399999999999999	0	43.89251432530787	-10.0174888095922	0	59.74113379767925	1.042679483643967	-5.001748355035275	0	0	43.89251432530787	-10.0174888095922	0	59.74113379767925	1.042679483643967	-5.001748355035275	0	0	-2.869122737884175	-0.3479620161593979	-0.6776119350320734	0	-12.19898384931668	0	75.70775556792023	45.01512183696521	0	0	26.0966731401782	4.554233200494678	46.97344640177645	75.70775556792023	45.01512183696521	0	0
12.66	-3.704416672174512	0.4987475864474771	145.8192297048647	0	0.9399999999999999	0	43.89376330497924	-10.01742808745477	0	59.74136480761115	1.042683515527883	-5.001740842163876	0	0	43.89376330497924	-10.01742808745477	0	59.74136480761115	1.042683515527883	-5.001740842163876	0	0	-2.883645821204114	-0.3489827727453162	-0.6526837567133843	0	-12.20064078455978	0	75.70695767654954	45.01507875167465	0	0	26.0474197637701	4.575261410454986	47.01716090543363	75.70695767654954	45.01507875167465	0	0
